<?xml version="1.0" encoding="utf-8"?>
<!-- Svg Vector Icons : http://www.sfont.cn -->
<!DOCTYPE svg PUBLIC "-//W3C//DTD SVG 1.1//EN" "http://www.w3.org/Graphics/SVG/1.1/DTD/svg11.dtd">
<svg version="1.1" xmlns="http://www.w3.org/2000/svg" xmlns:xlink="http://www.w3.org/1999/xlink" x="0px" y="0px" viewBox="0 0 1000 1000" enable-background="new 0 0 1000 1000" xml:space="preserve">
<metadata> Svg Vector Icons : http://www.sfont.cn </metadata>
<g><path d="M500,10C229.8,10,10,229.8,10,500s219.8,490,490,490c270.2,0,490-219.8,490-490C990,229.8,770.2,10,500,10z M751.6,528.2c0,73.6-22.1,132.4-66.4,176.6c-44.3,44.1-105.5,66.2-183.7,66.2h-164V209h171c74.6,0,133.8,22.3,177.5,66.8c43.7,44.5,65.6,103.3,65.6,176.4V528.2z"/><path d="M508.5,266.9h-99.6v446.5h92.6c59.7,0,104.3-16.8,133.9-50.4c29.6-33.6,44.4-78.5,44.4-134.9v-76.8c0-57.4-14.5-102.5-43.6-135.3C607.1,283.3,564.5,266.9,508.5,266.9z"/></g>
</svg>